<?xml version="1.0" encoding="utf-8"?>
<!-- Generator: Adobe Illustrator 18.0.0, SVG Export Plug-In . SVG Version: 6.00 Build 0)  -->
<!DOCTYPE svg PUBLIC "-//W3C//DTD SVG 1.1//EN" "http://www.w3.org/Graphics/SVG/1.1/DTD/svg11.dtd">
<svg xmlns="http://www.w3.org/2000/svg" xmlns:xlink="http://www.w3.org/1999/xlink" version="1.1" id="Layer_1" x="0px" y="0px" viewBox="0 0 32 32" enable-background="new 0 0 32 32" xml:space="preserve">

<g>
        <g>
                <g>
                        <g>
                                <path fill="#3398cb" d="M26.9,4.6c-3-3-6.9-4.6-11.1-4.6C11.5,0,7.6,1.6,4.6,4.6c-3,3-4.6,6.9-4.6,11.1c0,4.2,1.6,8.2,4.6,11.1      c3,3,6.9,4.6,11.1,4.6c4.2,0,8.2-1.6,11.1-4.6c3-3,4.6-6.9,4.6-11.1C31.5,11.5,29.8,7.6,26.9,4.6z M25.3,25.3      c-2.6,2.6-6,4-9.6,4c-3.6,0-7-1.4-9.6-4c-2.6-2.6-4-6-4-9.6c0-3.6,1.4-7,4-9.6c2.6-2.6,6-4,9.6-4c3.6,0,7,1.4,9.6,4      c2.6,2.6,4,6,4,9.6C29.3,19.4,27.9,22.8,25.3,25.3z"/>
                                <g>
                                        <path fill="#3398cb" d="M11.8,20.9c-0.5,0-0.9-0.3-0.9-0.6V8.5c0-0.3,0.4-0.6,0.9-0.6c0.5,0,0.9,0.3,0.9,0.6v11.7       C12.7,20.6,12.3,20.9,11.8,20.9z"/>
                                        <g>
                                                <path fill="#3398cb" d="M11.8,9.8c-0.5,0-1-0.2-1.3-0.5c-0.7-0.7-0.7-1.9,0-2.6c0.4-0.4,0.8-0.5,1.3-0.5c0.5,0,1,0.2,1.3,0.5        c0.4,0.4,0.5,0.8,0.5,1.3c0,0.5-0.2,1-0.5,1.3C12.7,9.6,12.3,9.8,11.8,9.8z"/>
                                        </g>
                                        <g>
                                                <path fill="#3398cb" d="M11.8,23.3c-0.5,0-1-0.2-1.3-0.5c-0.4-0.4-0.5-0.8-0.5-1.3c0-0.5,0.2-1,0.5-1.3        c0.4-0.4,0.8-0.5,1.3-0.5c0.5,0,1,0.2,1.3,0.5c0.4,0.4,0.5,0.8,0.5,1.3c0,0.5-0.2,1-0.5,1.3C12.7,23.1,12.3,23.3,11.8,23.3z"/>
                                        </g>
                                        <g>
                                                <path fill="#3398cb" d="M19.7,23.1c-0.5,0-0.9-0.3-0.9-0.6V11.1c0-0.3,0.4-0.6,0.9-0.6c0.5,0,0.9,0.3,0.9,0.6v11.4        C20.6,22.9,20.2,23.1,19.7,23.1z"/>
                                        </g>
                                        <g>
                                                <path fill="#3398cb" d="M19.7,11.9c-0.5,0-1-0.2-1.3-0.5c-0.7-0.7-0.7-1.9,0-2.6c0.4-0.4,0.8-0.5,1.3-0.5c0.5,0,1,0.2,1.3,0.5        c0.4,0.4,0.5,0.8,0.5,1.3c0,0.5-0.2,1-0.5,1.3C20.7,11.7,20.2,11.9,19.7,11.9z"/>
                                        </g>
                                        <g>
                                                <path fill="#3398cb" d="M19.7,25.4c-0.5,0-1-0.2-1.3-0.5c-0.7-0.7-0.7-1.9,0-2.6c0.4-0.4,0.8-0.5,1.3-0.5c0.5,0,1,0.2,1.3,0.5        c0.4,0.4,0.5,0.8,0.5,1.3c0,0.5-0.2,1-0.5,1.3C20.7,25.2,20.2,25.4,19.7,25.4z"/>
                                        </g>
                                        <g>
                                                <polygon fill="#3398cb" points="19.8,18.5 11.9,14.8 12,13.1 20,16.8       "/>
                                        </g>
                                </g>
                        </g>
                </g>
        </g>
</g>
</svg>