<?xml version="1.0" encoding="utf-8"?>
<!-- Generator: Adobe Illustrator 19.1.0, SVG Export Plug-In . SVG Version: 6.00 Build 0)  -->
<svg version="1.1" id="Layer_1" xmlns="http://www.w3.org/2000/svg" xmlns:xlink="http://www.w3.org/1999/xlink" x="0px" y="0px"
	 viewBox="0 0 379.6 86" style="enable-background:new 0 0 379.6 86;" xml:space="preserve">
<style type="text/css">
	.st0{fill:#E6E7E8;}
</style>
<path class="st0" d="M130.6,58.6V47.9h-12v10.7h-5.4V33.3h5.4v10h12v-10h5.4v25.4H130.6z"/>
<path class="st0" d="M141.4,58.6V33.3h5.4v25.4H141.4z"/>
<path class="st0" d="M151,46c0-8,6.1-13.1,13.5-13.1c5.2,0,8.6,2.7,10.5,5.7l-4.4,2.4c-1.2-1.8-3.3-3.3-6-3.3c-4.6,0-8,3.5-8,8.3
	c0,4.8,3.3,8.3,8,8.3c2.2,0,4.3-1,5.4-1.9v-3h-6.7v-4.7h12.1v9.7c-2.6,2.9-6.2,4.8-10.8,4.8C157.1,59.1,151,53.9,151,46z"/>
<path class="st0" d="M197.4,58.6V47.9h-12v10.7H180V33.3h5.4v10h12v-10h5.4v25.4H197.4z"/>
<path class="st0" d="M218.3,58.6V33.3h17.9V38h-12.5v5.3H236v4.8h-12.3v10.5H218.3z"/>
<path class="st0" d="M240.4,58.6V33.3h5.4v25.4H240.4z"/>
<path class="st0" d="M251.2,58.6V33.3h10c7.9,0,13.5,5.1,13.5,12.7c0,7.7-5.5,12.7-13.4,12.7H251.2z M269.2,45.9
	c0-4.4-2.7-7.9-7.9-7.9h-4.6v15.9h4.6C266.2,53.9,269.2,50.2,269.2,45.9z"/>
<path class="st0" d="M278.9,58.6V33.3h17.9V38h-12.5v5.3h12.3v4.8h-12.3v5.8h12.5v4.8H278.9z"/>
<path class="st0" d="M301.2,58.6V33.3h5.4v20.6h10.7v4.8H301.2z"/>
<path class="st0" d="M321.4,58.6V33.3h5.4v25.4H321.4z"/>
<path class="st0" d="M338.1,58.6V38h-7.4v-4.8h20.2V38h-7.4v20.6H338.1z"/>
<path class="st0" d="M361.8,58.6V48.2l-9.7-15h6.2l6.3,10.2l6.3-10.2h6.1l-9.7,15v10.4H361.8z"/>
<path class="st0" d="M80.2,26.7c-2.1-4.9-5-9.2-8.7-13C67.7,10,63.3,7,58.5,5c-5-2.1-10.4-3.2-15.9-3.2c-5.5,0-10.8,1.1-15.9,3.2
	c-4.9,2.1-9.2,5-13,8.7c-3.7,3.7-6.7,8.1-8.7,13c-2.1,5-3.2,10.4-3.2,15.9c0,5.5,1.1,10.8,3.2,15.9c2.1,4.9,5,9.2,8.7,13
	c3.7,3.7,8.1,6.7,13,8.7c5,2.1,10.4,3.2,15.9,3.2c5.5,0,10.8-1.1,15.9-3.2c4.9-2.1,9.2-5,13-8.7c3.7-3.7,6.7-8.1,8.7-13
	c2.1-5,3.2-10.4,3.2-15.9C83.4,37,82.3,31.7,80.2,26.7z M42.6,79C22.5,79,6.1,62.7,6.1,42.5C6.1,22.4,22.5,6,42.6,6
	c20.1,0,36.5,16.4,36.5,36.5C79.1,62.7,62.8,79,42.6,79z"/>
<path class="st0" d="M55.1,59.8V31.2c1.8-0.6,3.1-2.3,3.1-4.3c0-2.5-2-4.5-4.5-4.5c-2.5,0-4.5,2-4.5,4.5c0,1.9,1.2,3.5,2.8,4.2v13.3
	l-18.6-8.6V25.3c1.8-0.6,3.1-2.3,3.1-4.3c0-2.5-2-4.5-4.5-4.5c-2.5,0-4.5,2-4.5,4.5c0,1.9,1.2,3.5,2.8,4.2V54
	c-1.7,0.7-2.8,2.3-2.8,4.2c0,2.5,2,4.5,4.5,4.5c2.5,0,4.5-2,4.5-4.5c0-2-1.3-3.7-3.1-4.3V39.5l18.6,8.6v11.8
	c-1.7,0.7-2.8,2.3-2.8,4.2c0,2.5,2,4.5,4.5,4.5c2.5,0,4.5-2,4.5-4.5C58.1,62.1,56.8,60.4,55.1,59.8z"/>
</svg>
