<?xml version="1.0" encoding="UTF-8" standalone="no"?>
<svg
   xmlns:svg="http://www.w3.org/2000/svg"
   xmlns="http://www.w3.org/2000/svg"
    xmlns:xlink="http://www.w3.org/1999/xlink"
   version="1.1"
   id="svg2"
   x="0px"
   y="0px"
  viewBox="0 0 46.4 50">
  
  <g
     id="layer1"
     transform="matrix(0.202462,0,0,0.202462,85.358473,-99.52497)">
    <g
       transform="matrix(6.527622,0,0,-6.527622,-20493.409,24717.937)"
       id="g1364">
      <g
         clip-path="url(#clipPath1368)"
         id="g1366">
        <g
           transform="translate(3094.9937,3697.9392)"
           id="g1372">
          <path
             id="path1374"
             style="fill:#18A6DF;fill-opacity:1;fill-rule:nonzero;stroke:none"
             d="M 0,0 C 0.752,0.868 1.808,1.346 2.972,1.346 3.658,1.346 4.35,1.175 4.918,0.862 6.673,-0.101 7.406,-2.122 6.701,-4.051 6.13,-5.617 4.718,-6.232 3.063,-6.893 2.944,-6.852 2.824,-6.812 2.699,-6.771 2.229,-6.615 1.784,-6.467 1.393,-6.276 0.108,-5.647 -0.736,-4.627 -0.985,-3.404 -1.222,-2.237 -0.863,-0.996 0,0 m -16.706,-2.728 c 0.008,-1.199 -0.308,-2.31 -1.056,-3.713 -0.67,-1.253 -1.258,-2.431 -1.799,-3.599 -0.436,-0.941 -0.774,-1.934 -0.298,-2.825 0.472,-0.882 1.447,-1.147 2.431,-1.301 0.649,-0.102 0.731,-0.158 0.718,-0.899 -0.006,-0.302 -0.019,-0.604 -0.033,-0.906 -0.05,-1.138 -0.102,-2.315 0.222,-3.563 0.585,-2.256 2.85,-3.731 5.035,-3.293 4.038,0.805 7.334,1.428 10.375,1.959 4.151,0.725 5.286,1.548 5.365,5.955 0.027,1.49 0.02,2.999 0.013,4.496 -0.002,0.42 -0.002,0.84 -0.004,1.26 1.898,0.767 3.922,1.735 4.833,4.232 1.146,3.14 -0.067,6.438 -2.951,8.022 C 3.844,4.36 0.333,4.276 -1.927,1.669 -3.312,0.07 -3.88,-1.964 -3.483,-3.912 c 0.405,-1.987 1.773,-3.683 3.755,-4.653 0.48,-0.235 0.976,-0.408 1.441,-0.564 0.002,-0.437 0.003,-0.878 0.005,-1.336 0.007,-1.446 0.014,-2.941 -0.013,-4.403 -0.053,-2.93 -0.053,-2.93 -3.255,-3.489 -3.052,-0.533 -6.367,-1.159 -10.434,-1.97 -0.86,-0.173 -1.827,0.498 -2.07,1.432 -0.227,0.878 -0.186,1.817 -0.142,2.81 0.015,0.326 0.029,0.651 0.035,0.974 0.035,1.994 -0.931,3.159 -2.872,3.463 -0.171,0.027 -0.305,0.054 -0.411,0.077 0.044,0.116 0.107,0.267 0.196,0.46 0.52,1.124 1.088,2.259 1.734,3.469 0.64,1.198 1.372,2.842 1.358,4.932 -0.041,5.761 2.477,9.848 7.482,12.148 5.339,2.452 10.166,1.764 14.757,-2.104 4.936,-4.157 5.914,-12.043 2.094,-16.876 -1.913,-2.42 -2.655,-4.949 -2.402,-8.198 0.092,-1.2 0.069,-2.456 0.045,-3.671 -0.011,-0.575 -0.022,-1.151 -0.022,-1.725 0,-0.703 0.571,-1.275 1.274,-1.275 0.703,0 1.275,0.572 1.275,1.275 0,0.558 0.011,1.117 0.022,1.676 0.024,1.275 0.05,2.594 -0.053,3.917 -0.198,2.561 0.375,4.542 1.861,6.42 4.636,5.866 3.491,15.401 -2.45,20.406 -5.351,4.506 -11.227,5.338 -17.465,2.471 -5.914,-2.717 -9.014,-7.725 -8.968,-14.482" />
        </g>
      </g>
    </g>
  </g>
  <g
     transform="matrix(0.12552644,0,0,0.12552644,52.922265,-577.99154)"
     id="g3427">
    <g
       id="g3429"
       transform="matrix(6.527622,0,0,-6.527622,-20493.409,24717.937)">
      <g
         id="g3431"
         clip-path="url(#clipPath1368)">
        <g
           id="g3433"
           transform="translate(3094.9937,3697.9392)">
          <path
             d="M 0,0 C 0.752,0.868 1.808,1.346 2.972,1.346 3.658,1.346 4.35,1.175 4.918,0.862 6.673,-0.101 7.406,-2.122 6.701,-4.051 6.13,-5.617 4.718,-6.232 3.063,-6.893 2.944,-6.852 2.824,-6.812 2.699,-6.771 2.229,-6.615 1.784,-6.467 1.393,-6.276 0.108,-5.647 -0.736,-4.627 -0.985,-3.404 -1.222,-2.237 -0.863,-0.996 0,0 m -16.706,-2.728 c 0.008,-1.199 -0.308,-2.31 -1.056,-3.713 -0.67,-1.253 -1.258,-2.431 -1.799,-3.599 -0.436,-0.941 -0.774,-1.934 -0.298,-2.825 0.472,-0.882 1.447,-1.147 2.431,-1.301 0.649,-0.102 0.731,-0.158 0.718,-0.899 -0.006,-0.302 -0.019,-0.604 -0.033,-0.906 -0.05,-1.138 -0.102,-2.315 0.222,-3.563 0.585,-2.256 2.85,-3.731 5.035,-3.293 4.038,0.805 7.334,1.428 10.375,1.959 4.151,0.725 5.286,1.548 5.365,5.955 0.027,1.49 0.02,2.999 0.013,4.496 -0.002,0.42 -0.002,0.84 -0.004,1.26 1.898,0.767 3.922,1.735 4.833,4.232 1.146,3.14 -0.067,6.438 -2.951,8.022 C 3.844,4.36 0.333,4.276 -1.927,1.669 -3.312,0.07 -3.88,-1.964 -3.483,-3.912 c 0.405,-1.987 1.773,-3.683 3.755,-4.653 0.48,-0.235 0.976,-0.408 1.441,-0.564 0.002,-0.437 0.003,-0.878 0.005,-1.336 0.007,-1.446 0.014,-2.941 -0.013,-4.403 -0.053,-2.93 -0.053,-2.93 -3.255,-3.489 -3.052,-0.533 -6.367,-1.159 -10.434,-1.97 -0.86,-0.173 -1.827,0.498 -2.07,1.432 -0.227,0.878 -0.186,1.817 -0.142,2.81 0.015,0.326 0.029,0.651 0.035,0.974 0.035,1.994 -0.931,3.159 -2.872,3.463 -0.171,0.027 -0.305,0.054 -0.411,0.077 0.044,0.116 0.107,0.267 0.196,0.46 0.52,1.124 1.088,2.259 1.734,3.469 0.64,1.198 1.372,2.842 1.358,4.932 -0.041,5.761 2.477,9.848 7.482,12.148 5.339,2.452 10.166,1.764 14.757,-2.104 4.936,-4.157 5.914,-12.043 2.094,-16.876 -1.913,-2.42 -2.655,-4.949 -2.402,-8.198 0.092,-1.2 0.069,-2.456 0.045,-3.671 -0.011,-0.575 -0.022,-1.151 -0.022,-1.725 0,-0.703 0.571,-1.275 1.274,-1.275 0.703,0 1.275,0.572 1.275,1.275 0,0.558 0.011,1.117 0.022,1.676 0.024,1.275 0.05,2.594 -0.053,3.917 -0.198,2.561 0.375,4.542 1.861,6.42 4.636,5.866 3.491,15.401 -2.45,20.406 -5.351,4.506 -11.227,5.338 -17.465,2.471 -5.914,-2.717 -9.014,-7.725 -8.968,-14.482"
             style="fill:#18A6DF;fill-opacity:1;fill-rule:nonzero;stroke:none"
             id="path3435" />
        </g>
      </g>
    </g>
  </g>
</svg>
